HIERARCHY
ROOT Hips
{
	OFFSET 0.000000 0.000000 0.000000
	CHANNELS 6 Xposition Yposition Zposition Zrotation Yrotation Xrotation 
	JOINT LHipJoint
	{
		OFFSET 0.000000 0.000000 0.000000
		CHANNELS 3 Zrotation Yrotation Xrotation
		JOINT LeftUpLeg
		{
			OFFSET 1.363060 -1.794630 0.839290
			CHANNELS 3 Zrotation Yrotation Xrotation
			JOINT LeftLeg
			{
				OFFSET 2.448110 -6.726130 0.000000
				CHANNELS 3 Zrotation Yrotation Xrotation
				JOINT LeftFoot
				{
					OFFSET 2.562200 -7.039590 0.000000
					CHANNELS 3 Zrotation Yrotation Xrotation
					JOINT LeftToeBase
					{
						OFFSET 0.157640 -0.433110 2.322550
						CHANNELS 3 Zrotation Yrotation Xrotation
						End Site
						{
							OFFSET 0.000000 0.000000 0.000000
						}
					}
				}
			}
		}
	}
	JOINT RHipJoint
	{
		OFFSET 0.000000 0.000000 0.000000
		CHANNELS 3 Zrotation Yrotation Xrotation
		JOINT RightUpLeg
		{
			OFFSET -1.305520 -1.794630 0.839290
			CHANNELS 3 Zrotation Yrotation Xrotation
			JOINT RightLeg
			{
				OFFSET -2.542530 -6.985550 0.000000
				CHANNELS 3 Zrotation Yrotation Xrotation
				JOINT RightFoot
				{
					OFFSET -2.568260 -7.056230 0.000000
					CHANNELS 3 Zrotation Yrotation Xrotation
					JOINT RightToeBase
					{
						OFFSET -0.164730 -0.452590 2.363150
						CHANNELS 3 Zrotation Yrotation Xrotation
						End Site
						{
							OFFSET 0.000000 0.000000 0.000000
						}
					}
				}
			}
		}
	}
	JOINT LowerBack
	{
		OFFSET 0.000000 0.000000 0.000000
		CHANNELS 3 Zrotation Yrotation Xrotation
		JOINT Spine
		{
			OFFSET 0.028270 2.035590 -0.193380
			CHANNELS 3 Zrotation Yrotation Xrotation
			JOINT Spine1
			{
				OFFSET 0.056720 2.048850 -0.042750
				CHANNELS 3 Zrotation Yrotation Xrotation
				JOINT Neck
				{
					OFFSET 0.000000 0.000000 0.000000
					CHANNELS 3 Zrotation Yrotation Xrotation
					JOINT Neck1
					{
						OFFSET -0.054170 1.746240 0.172020
						CHANNELS 3 Zrotation Yrotation Xrotation
						JOINT Head
						{
							OFFSET 0.104070 1.761360 -0.123970
							CHANNELS 3 Zrotation Yrotation Xrotation
							End Site
							{
								OFFSET 0.000000 0.000000 0.000000
							}
						}
					}
				}
				JOINT LeftShoulder
				{
					OFFSET 0.000000 0.000000 0.000000
					CHANNELS 3 Zrotation Yrotation Xrotation
					JOINT LeftArm
					{
						OFFSET 3.362410 1.200890 -0.311210
						CHANNELS 3 Zrotation Yrotation Xrotation
						JOINT LeftForeArm
						{
							OFFSET 4.983000 -0.000000 -0.000000
							CHANNELS 3 Zrotation Yrotation Xrotation
							JOINT LeftHand
							{
								OFFSET 3.483560 -0.000000 -0.000000
								CHANNELS 3 Zrotation Yrotation Xrotation
								JOINT LeftFingerBase
								{
									OFFSET 0.000000 0.000000 0.000000
									CHANNELS 3 Zrotation Yrotation Xrotation
									JOINT LeftHandIndex1
									{
										OFFSET 0.715260 -0.000000 -0.000000
										CHANNELS 3 Zrotation Yrotation Xrotation
										End Site
										{
											OFFSET 0.000000 0.000000 0.000000
										}
									}
								}
								JOINT LThumb
								{
									OFFSET 0.000000 0.000000 0.000000
									CHANNELS 3 Zrotation Yrotation Xrotation
									End Site
									{
										OFFSET 0.000000 0.000000 0.000000
									}
								}
							}
						}
					}
				}
				JOINT RightShoulder
				{
					OFFSET 0.000000 0.000000 0.000000
					CHANNELS 3 Zrotation Yrotation Xrotation
					JOINT RightArm
					{
						OFFSET -3.136600 1.374050 -0.404650
						CHANNELS 3 Zrotation Yrotation Xrotation
						JOINT RightForeArm
						{
							OFFSET -5.241900 -0.000000 -0.000000
							CHANNELS 3 Zrotation Yrotation Xrotation
							JOINT RightHand
							{
								OFFSET -3.444170 -0.000000 -0.000000
								CHANNELS 3 Zrotation Yrotation Xrotation
								JOINT RightFingerBase
								{
									OFFSET 0.000000 0.000000 0.000000
									CHANNELS 3 Zrotation Yrotation Xrotation
									JOINT RightHandIndex1
									{
										OFFSET -0.622530 -0.000000 -0.000000
										CHANNELS 3 Zrotation Yrotation Xrotation
										End Site
										{
											OFFSET 0.000000 0.000000 0.000000
										}
									}
								}
								JOINT RThumb
								{
									OFFSET 0.000000 0.000000 0.000000
									CHANNELS 3 Zrotation Yrotation Xrotation
									End Site
									{
										OFFSET 0.000000 0.000000 0.000000
									}
								}
							}
						}
					}
				}
			}
		}
	}
}
MOTION
Frames: 11
Frame Time: 0.008333
12.938814 15.034234 26.595796 -179.567163 13.967068 -158.520810 5.213813 -4.382531 -14.346653 -24.715945 8.653388 11.129915 -5.728770 2.934730 34.971441 -17.984546 21.406171 31.136722 -6.367812 -22.381113 30.334467 9.803614 4.749987 -7.112458 7.376596 -1.871232 -59.515015 -7.727971 -20.460894 55.360152 -8.317190 -2.613332 -14.511597 -14.417347 12.735240 -17.663288 -10.113997 1.100871 25.856486 3.905050 0.829849 -7.825615 12.463405 -4.514792 7.572793 -7.281630 1.723669 -19.757244 1.687304 2.204868 6.095697 7.017757 1.840411 -1.236978 14.504562 1.997543 10.776430 -70.863762 -61.874446 10.260332 72.553265 -70.458733 -1.654417 6.407444 -43.165167 3.680630 0.000001 -0.000001 -0.000001 0.000000 -0.000000 -0.000000 0.000000 0.000000 0.000000 -13.018943 -7.609551 4.121171 70.136546 23.965815 -6.460094 11.078396 31.041255 19.497415 -7.207200 25.080551 1.848271 0.000002 0.000001 -0.000002 -0.000000 0.000000 0.000000 -0.000000 -0.000000 0.000000 
13.016396 14.972568 26.268619 -179.337539 14.404136 -158.892691 5.135177 -4.132399 -13.628687 -24.436307 8.572333 9.020436 -3.385535 7.108179 37.804953 -17.847928 21.577061 31.849700 -6.824123 -20.109140 32.326596 9.871845 4.664886 -7.027124 9.252699 -1.951117 -59.147977 -9.852438 -18.736397 57.383433 -7.542004 -1.534152 -16.541856 -15.284187 13.236306 -18.723837 -10.274488 0.677173 25.444874 3.931137 1.226631 -7.766924 12.279517 -4.284617 7.661328 -7.221310 1.803461 -19.565148 1.638321 2.228957 6.130223 7.559324 1.507893 -1.211910 14.009374 2.478386 9.953747 -73.181471 -58.359489 13.408211 67.639602 -69.584288 2.809922 5.144989 -44.400961 4.344993 0.000001 -0.000001 -0.000001 0.000000 0.000000 0.000000 0.000000 0.000000 -0.000000 -12.975975 -6.549551 4.650610 69.459319 25.951885 -7.437145 11.066702 30.417310 18.561874 -4.469867 22.864326 2.246384 0.000002 0.000001 -0.000002 0.000000 0.000000 0.000000 -0.000000 -0.000000 -0.000000 
13.084775 14.940435 25.942943 -178.617343 14.518002 -159.407864 5.101105 -3.641784 -13.096460 -23.777057 7.458967 6.274580 -0.849968 11.178617 42.999103 -19.127220 19.987833 31.641046 -6.524685 -15.180084 32.216554 9.621644 4.628209 -7.141873 10.983156 -1.494844 -57.580045 -10.798492 -16.948459 58.960300 -9.349061 -3.470076 -16.785614 -13.762001 10.041185 -22.556253 -10.324923 0.101048 25.300219 3.967715 1.823289 -7.637259 11.832360 -4.084261 7.936547 -6.702919 1.761525 -19.457858 1.239022 2.108415 6.391672 7.110950 1.053953 -1.427372 14.342148 3.422665 9.419031 -75.287818 -54.685867 16.929386 63.321691 -68.616932 5.847617 2.999011 -44.872452 5.302320 0.000001 -0.000001 -0.000001 0.000000 0.000000 -0.000000 0.000000 0.000000 0.000000 -12.650411 -5.604971 5.219393 69.139605 28.389589 -8.754888 11.207031 30.144290 17.243082 -2.629639 20.187548 2.352513 0.000002 0.000001 -0.000002 -0.000000 0.000000 -0.000000 -0.000000 0.000000 0.000000 
13.140751 14.922462 25.598949 -177.647615 14.587488 -159.669589 4.629183 -3.224321 -12.326875 -22.404750 6.094263 3.377507 1.833359 14.463672 48.172289 -20.435386 19.206866 31.596456 -6.394915 -8.827062 34.498884 9.471493 4.574560 -7.206046 12.502343 -0.869980 -55.893612 -10.818719 -15.270228 60.210431 -11.018132 -6.169567 -16.674640 -13.707450 8.697082 -25.897840 -9.966935 -0.444746 24.982319 4.009748 2.607639 -7.576654 11.978325 -4.092924 8.125508 -6.869817 1.865819 -19.347588 0.701531 2.164346 6.660173 8.368161 -0.034916 -2.002460 13.649408 4.119327 8.926465 -76.748178 -51.149462 20.206504 59.044647 -67.179338 6.503270 -0.760130 -43.952673 6.773141 0.000001 -0.000001 -0.000001 0.000000 0.000000 -0.000000 -0.000000 0.000000 0.000000 -12.570386 -4.660882 5.690319 68.286451 30.692276 -10.115307 11.136247 29.808286 16.653730 -5.605933 20.076109 1.747098 0.000002 0.000001 -0.000002 0.000000 -0.000000 -0.000000 0.000000 0.000000 -0.000000 
13.199505 14.906727 25.243093 -176.657309 14.706131 -159.677687 4.097299 -2.928417 -11.355906 -20.864442 4.863229 0.129840 4.555133 16.928314 53.283584 -21.254408 18.635832 31.880534 -6.127205 -4.072646 34.619724 9.422928 4.583940 -7.181140 12.876549 0.552417 -53.993645 -10.607012 -14.975761 61.176286 -11.742098 -8.839754 -16.384671 -13.980928 7.995956 -28.718256 -9.602404 -0.955303 24.313229 4.106756 3.300151 -7.511294 11.999509 -4.170554 8.910197 -6.875262 1.810221 -19.753046 0.117985 2.141941 6.912411 9.103209 -0.795649 -3.316760 12.788631 5.249582 8.573417 -77.741105 -48.411089 21.822510 52.656569 -66.581833 10.684926 -3.004565 -44.541254 7.840412 0.000001 -0.000001 -0.000001 0.000000 -0.000000 -0.000000 -0.000000 0.000000 0.000000 -12.040924 -3.905012 6.238302 67.007982 33.617947 -11.489130 10.912115 29.407564 16.998921 -3.299869 20.027795 2.176253 0.000002 0.000001 -0.000002 -0.000000 0.000000 0.000000 -0.000000 -0.000000 -0.000000 
13.268033 14.894910 24.890841 -175.819370 14.854420 -159.781007 3.836427 -2.522256 -10.579514 -19.627078 3.902133 -3.131237 6.396992 18.124380 58.460473 -21.419595 18.026551 31.318959 -5.374849 -6.928577 30.138121 9.390367 4.474874 -7.109130 12.918934 2.035315 -51.835606 -10.395990 -15.375140 61.752855 -12.628466 -10.867308 -16.202065 -13.070314 6.576392 -30.414566 -9.432331 -1.366096 23.815232 4.138442 4.240675 -7.366414 10.717783 -3.546210 10.066501 -5.566626 1.679306 -20.442616 -0.168596 1.872884 6.957671 7.953449 -0.883814 -3.915457 13.524494 5.793627 7.842551 -78.460602 -46.067483 22.719055 45.848289 -65.683210 14.925574 -3.980025 -44.335776 8.212157 0.000001 -0.000001 -0.000001 0.000000 -0.000000 -0.000000 -0.000000 0.000000 0.000000 -10.279397 -4.378539 7.326932 65.905085 37.565412 -13.376419 10.934688 29.399229 17.931079 1.999830 20.254233 3.265989 0.000002 0.000001 -0.000002 -0.000000 0.000000 -0.000000 -0.000000 -0.000000 -0.000000 
13.332508 14.902462 24.556156 -175.089305 15.033813 -160.071353 3.840479 -2.114023 -10.224322 -18.586333 2.945533 -6.317218 7.979106 19.201895 63.579169 -21.222221 16.696966 29.907750 -5.115388 -7.247285 28.807015 9.132746 4.512614 -7.315538 13.475447 2.407583 -49.136222 -9.742303 -15.587361 61.661554 -13.593326 -12.265005 -16.473368 -13.064859 6.108727 -31.855535 -9.377000 -1.849703 23.988928 4.097253 5.120414 -7.190804 9.641564 -2.979413 10.618910 -4.386685 1.440908 -20.659605 0.123859 1.425979 6.450754 6.400171 -1.572689 -3.607551 14.375197 6.304600 7.074750 -79.077925 -43.405849 22.865690 39.322764 -64.181149 17.392371 -6.752707 -43.196299 9.158931 0.000001 -0.000001 -0.000001 -0.000000 0.000000 0.000000 0.000000 -0.000000 0.000000 -9.488679 -4.330323 8.135966 65.397098 41.262581 -15.007247 10.788453 30.337987 18.383737 0.278610 21.577436 3.145749 0.000002 0.000001 -0.000002 0.000000 -0.000000 -0.000000 0.000000 0.000000 -0.000000 
13.397387 14.921156 24.229279 -174.522581 15.020653 -160.201848 3.589324 -2.285400 -9.876938 -17.190695 2.367485 -9.810635 9.813878 20.066932 68.474009 -20.367998 14.991231 29.204352 -4.568999 -1.684250 27.390325 8.826383 5.071878 -7.740100 13.525459 2.325568 -46.373008 -9.061455 -16.353254 61.237785 -13.943038 -13.408255 -16.667420 -13.396443 5.784523 -33.778229 -9.360798 -2.236937 24.174019 4.262547 4.678266 -7.120149 10.224715 -3.359093 12.191976 -4.813987 1.278776 -21.919070 0.497242 1.378042 5.789226 6.275366 -2.152041 -2.021887 12.940409 8.898317 6.799221 -79.462466 -42.091850 21.741587 31.247783 -62.766742 21.828634 -7.951822 -42.947011 9.607298 0.000001 -0.000001 -0.000001 -0.000000 -0.000000 -0.000000 -0.000000 -0.000000 0.000000 -10.339328 -3.127644 8.555320 64.199538 45.934274 -16.268541 10.043459 31.303164 16.285567 2.969054 16.173852 2.628909 0.000002 0.000001 -0.000002 0.000000 -0.000000 0.000000 -0.000000 -0.000000 -0.000000 
13.471426 14.934685 23.892192 -174.062668 14.926955 -160.241579 3.330862 -2.592465 -9.414593 -15.775748 1.709675 -13.392149 11.421861 20.750350 73.097872 -19.313236 13.453833 28.569108 -4.768309 -1.259044 28.470501 8.489834 5.545134 -7.957477 14.097688 1.904872 -44.189494 -9.331967 -16.819261 60.848773 -14.320484 -13.550887 -16.662524 -13.371516 5.387958 -34.983557 -9.440528 -2.620056 24.076901 4.480726 4.003223 -7.011216 10.884739 -3.932164 13.767474 -5.290846 1.161871 -23.084870 0.917645 1.346404 5.146406 6.409318 -2.810304 -2.245422 11.187554 11.605634 6.626614 -79.595081 -40.950847 20.117127 23.493278 -60.753039 24.770481 -8.975581 -41.552811 9.681283 0.000001 -0.000001 -0.000001 0.000000 -0.000000 0.000000 0.000000 0.000000 0.000000 -11.199559 -1.583267 9.037112 62.353077 50.564363 -18.007513 9.156906 32.076688 16.704255 4.798717 16.096522 2.988148 0.000002 0.000001 -0.000002 0.000000 0.000000 0.000000 -0.000000 0.000000 0.000000 
13.553138 14.943483 23.565465 -173.885393 14.794361 -160.363893 3.325066 -2.801368 -9.195669 -14.876593 1.399614 -16.838089 13.237825 21.078784 77.180117 -18.282899 12.005202 27.869863 -5.026272 -3.224927 29.531588 8.169674 6.129248 -8.171579 15.052010 0.531031 -42.404736 -9.886192 -16.445230 60.568942 -14.605389 -13.212594 -17.120816 -13.610840 5.260686 -36.117604 -9.582211 -3.121715 24.047426 4.591832 3.646678 -6.912779 10.783196 -4.184205 14.330590 -5.143732 1.079661 -23.342311 1.239234 1.253541 4.769513 5.995146 -2.821561 -2.086330 10.544841 13.305127 6.328838 -79.708937 -38.702526 18.301034 17.854373 -58.935897 25.032867 -11.255997 -38.898636 9.901503 0.000001 -0.000001 -0.000001 0.000000 0.000000 0.000000 0.000000 0.000000 -0.000000 -11.557999 -0.099336 9.515816 60.724030 54.023966 -19.503259 8.370047 32.815063 19.333512 2.023757 21.935463 3.558212 0.000002 0.000001 -0.000002 -0.000000 0.000000 0.000000 -0.000000 0.000000 0.000000 
13.639835 14.942162 23.249399 -174.304008 14.664917 -160.658544 3.624229 -2.793957 -9.166708 -14.956495 1.305747 -20.306873 15.412771 21.152397 80.548021 -17.146420 10.529891 26.901809 -4.462138 0.349899 26.914242 7.617363 6.487043 -8.496491 15.335047 -0.498023 -40.296133 -10.925591 -17.009775 60.037927 -16.741257 -12.189536 -17.960931 -9.850933 2.790788 -33.328675 -9.740135 -3.595639 24.092807 4.587628 3.106656 -6.875970 11.073049 -4.658901 14.576525 -5.696720 0.934184 -23.498491 1.336073 1.239961 4.764492 6.308421 -3.258079 -1.310629 9.619477 15.066358 6.412512 -80.115919 -36.197462 16.245587 13.527793 -58.292173 26.331890 -11.134925 -37.610660 9.519151 0.000001 -0.000001 -0.000001 -0.000000 -0.000000 -0.000000 -0.000000 -0.000000 0.000000 -12.938009 1.169346 9.473918 59.989672 56.692979 -19.705244 7.677103 33.771906 19.249432 0.003164 21.622110 3.074721 0.000002 0.000001 -0.000002 0.000000 -0.000000 -0.000000 0.000000 0.000000 0.000000 
